<mxfile host="app.diagrams.net" modified="2024-01-05T20:18:11.454Z" agent="Mozilla/5.0 (Windows NT 10.0; Win64; x64) AppleWebKit/537.36 (KHTML, like Gecko) Chrome/120.0.0.0 Safari/537.36" etag="NyvjNcS_jp0bcAQuav7Y" version="22.1.17" type="google">
  <diagram name="Page-1" id="oDOwT0Oo2WHZnssTb9PU">
    <mxGraphModel grid="1" page="1" gridSize="10" guides="1" tooltips="1" connect="1" arrows="1" fold="1" pageScale="1" pageWidth="850" pageHeight="1100" math="0" shadow="0">
      <root>
        <mxCell id="0" />
        <mxCell id="1" parent="0" />
        <mxCell id="pWT6UosqKvt4OJcs1gFU-2" value="User" style="swimlane;childLayout=stackLayout;horizontal=1;startSize=50;horizontalStack=0;rounded=1;fontSize=14;fontStyle=0;strokeWidth=2;resizeParent=0;resizeLast=1;shadow=0;dashed=0;align=center;arcSize=4;whiteSpace=wrap;html=1;" vertex="1" parent="1">
          <mxGeometry x="270" y="500" width="160" height="120" as="geometry" />
        </mxCell>
        <mxCell id="pWT6UosqKvt4OJcs1gFU-3" value="firstName&lt;br&gt;lastName&lt;br&gt;email&lt;br&gt;password" style="align=left;strokeColor=none;fillColor=none;spacingLeft=4;fontSize=12;verticalAlign=top;resizable=0;rotatable=0;part=1;html=1;" vertex="1" parent="pWT6UosqKvt4OJcs1gFU-2">
          <mxGeometry y="50" width="160" height="70" as="geometry" />
        </mxCell>
        <mxCell id="pWT6UosqKvt4OJcs1gFU-4" value="Role" style="swimlane;childLayout=stackLayout;horizontal=1;startSize=50;horizontalStack=0;rounded=1;fontSize=14;fontStyle=0;strokeWidth=2;resizeParent=0;resizeLast=1;shadow=0;dashed=0;align=center;arcSize=4;whiteSpace=wrap;html=1;" vertex="1" parent="1">
          <mxGeometry x="580" y="480" width="160" height="120" as="geometry" />
        </mxCell>
        <mxCell id="pWT6UosqKvt4OJcs1gFU-5" value="name&lt;br&gt;permissions&lt;br&gt;" style="align=left;strokeColor=none;fillColor=none;spacingLeft=4;fontSize=12;verticalAlign=top;resizable=0;rotatable=0;part=1;html=1;" vertex="1" parent="pWT6UosqKvt4OJcs1gFU-4">
          <mxGeometry y="50" width="160" height="70" as="geometry" />
        </mxCell>
        <mxCell id="pWT6UosqKvt4OJcs1gFU-9" value="" style="edgeStyle=entityRelationEdgeStyle;fontSize=12;html=1;endArrow=ERmandOne;startArrow=ERmandOne;rounded=0;entryX=1;entryY=0.5;entryDx=0;entryDy=0;exitX=0.003;exitY=0.36;exitDx=0;exitDy=0;exitPerimeter=0;" edge="1" parent="1" source="pWT6UosqKvt4OJcs1gFU-5" target="pWT6UosqKvt4OJcs1gFU-3">
          <mxGeometry width="100" height="100" relative="1" as="geometry">
            <mxPoint x="630" y="737.5" as="sourcePoint" />
            <mxPoint x="510" y="595" as="targetPoint" />
          </mxGeometry>
        </mxCell>
        <mxCell id="pWT6UosqKvt4OJcs1gFU-10" value="has" style="edgeLabel;html=1;align=center;verticalAlign=middle;resizable=0;points=[];fontSize=18;" connectable="0" vertex="1" parent="pWT6UosqKvt4OJcs1gFU-9">
          <mxGeometry x="-0.1273" y="-2" relative="1" as="geometry">
            <mxPoint as="offset" />
          </mxGeometry>
        </mxCell>
      </root>
    </mxGraphModel>
  </diagram>
</mxfile>
